<?xml version="1.0" encoding="UTF-8" standalone="no"?>
<svg
   width="24"
   height="24"
   viewBox="0 0 24 24"
   fill="none"
   version="1.1"
   id="svg1"
   xmlns="http://www.w3.org/2000/svg"
>
  <path
     style="color:#000000;fill:#000000;-inkscape-stroke:none"
     d="M 5,3.1699219 C 3.4465383,3.1699219 2.1699219,4.4465383 2.1699219,6 v 12 c 0,1.553462 1.2766164,2.830078 2.8300781,2.830078 h 14 c 1.553462,0 2.830078,-1.276616 2.830078,-2.830078 V 6 C 21.830078,4.4465383 20.553462,3.1699219 19,3.1699219 Z m 0,1.6601562 h 14 c 0.662536,0 1.169922,0.5073859 1.169922,1.1699219 v 12 c 0,0.662536 -0.507386,1.169922 -1.169922,1.169922 H 5 C 4.337464,19.169922 3.8300781,18.662536 3.8300781,18 V 6 C 3.8300781,5.337464 4.337464,4.8300781 5,4.8300781 Z"
     id="rect1" />
</svg>
