<svg width="24" height="24" viewBox="0 0 24 24" fill="none" xmlns="http://www.w3.org/2000/svg">
<path fill-rule="evenodd" clip-rule="evenodd" d="M7.20005 3.16992H7.16692H7.16691C6.63508 3.16991 6.18639 3.1699 5.81886 3.19993C5.43403 3.23137 5.06567 3.29983 4.71525 3.47837C4.18275 3.7497 3.74982 4.18263 3.4785 4.71513C3.29995 5.06555 3.23149 5.43391 3.20005 5.81874C3.17002 6.18627 3.17003 6.63495 3.17004 7.16678V7.1668V7.19992V8.99992C3.17004 9.45832 3.54165 9.82992 4.00005 9.82992C4.45844 9.82992 4.83005 9.45832 4.83005 8.99992V7.19992C4.83005 6.62617 4.83069 6.24578 4.85454 5.95392C4.87759 5.67174 4.91813 5.54616 4.95757 5.46875C5.06974 5.2486 5.24873 5.06962 5.46888 4.95745C5.54628 4.91801 5.67186 4.87747 5.95404 4.85442C6.2459 4.83057 6.6263 4.82992 7.20005 4.82992H9.00005C9.45844 4.82992 9.83005 4.45832 9.83005 3.99992C9.83005 3.54153 9.45844 3.16992 9.00005 3.16992H7.20005ZM16.8 3.16992H16.8332H16.8332C17.365 3.16991 17.8137 3.1699 18.1812 3.19993C18.5661 3.23137 18.9344 3.29983 19.2848 3.47837C19.8173 3.7497 20.2503 4.18263 20.5216 4.71513C20.7001 5.06555 20.7686 5.43391 20.8 5.81874C20.8301 6.18628 20.8301 6.63496 20.83 7.1668V7.19992V8.99992C20.83 9.45832 20.4584 9.82992 20 9.82992C19.5416 9.82992 19.17 9.45832 19.17 8.99992V7.19992C19.17 6.62617 19.1694 6.24578 19.1456 5.95392C19.1225 5.67174 19.082 5.54616 19.0425 5.46875C18.9304 5.2486 18.7514 5.06962 18.5312 4.95745C18.4538 4.91801 18.3282 4.87747 18.0461 4.85442C17.7542 4.83057 17.3738 4.82992 16.8 4.82992H15C14.5416 4.82992 14.17 4.45832 14.17 3.99992C14.17 3.54153 14.5416 3.16992 15 3.16992H16.8ZM7.16692 20.8299H7.20005H9.00005C9.45844 20.8299 9.83005 20.4583 9.83005 19.9999C9.83005 19.5415 9.45844 19.1699 9.00005 19.1699H7.20005C6.6263 19.1699 6.2459 19.1693 5.95404 19.1454C5.67186 19.1224 5.54628 19.0818 5.46888 19.0424C5.24873 18.9302 5.06974 18.7512 4.95757 18.5311C4.91813 18.4537 4.87759 18.3281 4.85454 18.0459C4.83069 17.7541 4.83005 17.3737 4.83005 16.7999V14.9999C4.83005 14.5415 4.45844 14.1699 4.00005 14.1699C3.54165 14.1699 3.17004 14.5415 3.17004 14.9999V16.7999V16.833V16.8331C3.17003 17.3649 3.17002 17.8136 3.20005 18.1811C3.23149 18.5659 3.29995 18.9343 3.4785 19.2847C3.74982 19.8172 4.18275 20.2502 4.71525 20.5215C5.06567 20.7 5.43403 20.7685 5.81886 20.7999C6.1864 20.8299 6.63508 20.8299 7.16692 20.8299ZM16.8 20.8299H16.8332C17.365 20.8299 17.8137 20.8299 18.1812 20.7999C18.5661 20.7685 18.9344 20.7 19.2848 20.5215C19.8173 20.2502 20.2503 19.8172 20.5216 19.2847C20.7001 18.9343 20.7686 18.5659 20.8 18.1811C20.8301 17.8136 20.8301 17.3649 20.83 16.833V16.7999V14.9999C20.83 14.5415 20.4584 14.1699 20 14.1699C19.5416 14.1699 19.17 14.5415 19.17 14.9999V16.7999C19.17 17.3737 19.1694 17.7541 19.1456 18.0459C19.1225 18.3281 19.082 18.4537 19.0425 18.5311C18.9304 18.7512 18.7514 18.9302 18.5312 19.0424C18.4538 19.0818 18.3282 19.1224 18.0461 19.1454C17.7542 19.1693 17.3738 19.1699 16.8 19.1699H15C14.5416 19.1699 14.17 19.5415 14.17 19.9999C14.17 20.4583 14.5416 20.8299 15 20.8299H16.8Z" fill="black"/>
</svg>
