<?xml version="1.0" encoding="UTF-8" standalone="no"?>
<svg
   width="24"
   height="24"
   viewBox="0 0 24 24"
   fill="none"
   version="1.1"
   id="svg1"
   xmlns="http://www.w3.org/2000/svg"
>
  <path
     style="color:#000000;fill:#000000;-inkscape-stroke:none"
     d="M 4.5,5.6699219 C 2.9465383,5.6699219 1.6699219,6.9465383 1.6699219,8.5 v 7 c 0,1.553462 1.2766164,2.830078 2.8300781,2.830078 h 15 c 1.553462,0 2.830078,-1.276616 2.830078,-2.830078 v -7 c 0,-1.5534617 -1.276616,-2.8300781 -2.830078,-2.8300781 z m 0,1.6601562 h 15 c 0.662536,0 1.169922,0.5073859 1.169922,1.1699219 v 7 c 0,0.662536 -0.507386,1.169922 -1.169922,1.169922 h -15 c -0.662536,0 -1.1699219,-0.507386 -1.1699219,-1.169922 v -7 C 3.3300781,7.837464 3.837464,7.3300781 4.5,7.3300781 Z"
     id="rect1" />
</svg>
