<svg width="24" height="24" viewBox="0 0 24 24" fill="none" xmlns="http://www.w3.org/2000/svg">
<path fill-rule="evenodd" clip-rule="evenodd" d="M7.16692 3.16992H7.20005H16.8H16.8332H16.8332C17.365 3.16991 17.8137 3.1699 18.1812 3.19993C18.5661 3.23137 18.9344 3.29983 19.2848 3.47837C19.8173 3.7497 20.2503 4.18263 20.5216 4.71513C20.7001 5.06555 20.7686 5.43391 20.8 5.81874C20.8301 6.18628 20.8301 6.63498 20.83 7.16684V7.19992V16.7999V16.833C20.8301 17.0351 20.8301 17.2252 20.8284 17.4033C20.8302 17.4946 20.8301 17.5902 20.8301 17.6924V17.6926V17.6926L20.83 17.7446V17.9999H20.8122C20.8088 18.0624 20.8048 18.1228 20.8 18.1811C20.7686 18.5659 20.7001 18.9343 20.5216 19.2847C20.2503 19.8172 19.8173 20.2502 19.2848 20.5215C18.9344 20.7 18.5661 20.7685 18.1812 20.7999C17.8137 20.8299 17.365 20.8299 16.8331 20.8299H16.8L15 20.8299H13.4033H12.9385L7.20005 20.8299H7.16696C6.63511 20.8299 6.18641 20.8299 5.81886 20.7999C5.43403 20.7685 5.06567 20.7 4.71525 20.5215C4.18275 20.2502 3.74982 19.8172 3.4785 19.2847C3.29995 18.9343 3.23149 18.5659 3.20005 18.1811C3.17002 17.8136 3.17003 17.3649 3.17004 16.8331V16.833V16.7999V7.19992V7.1668V7.16678C3.17003 6.63495 3.17002 6.18627 3.20005 5.81874C3.23149 5.43391 3.29995 5.06555 3.4785 4.71513C3.74982 4.18263 4.18275 3.7497 4.71525 3.47837C5.06567 3.29983 5.43403 3.23137 5.81886 3.19993C6.18639 3.1699 6.63508 3.16991 7.16691 3.16992H7.16692ZM13.8681 19.1699H15L16.8 19.1699C17.3738 19.1699 17.7542 19.1693 18.0461 19.1454C18.3282 19.1224 18.4538 19.0818 18.5312 19.0424C18.7514 18.9302 18.9304 18.7512 19.0425 18.5311C19.082 18.4537 19.1225 18.3281 19.1456 18.0459C19.1596 17.8741 19.1656 17.6716 19.1681 17.4171C19.1661 17.3106 19.162 17.2609 19.1542 17.214C19.1401 17.1293 19.1167 17.0464 19.0844 16.9668C19.054 16.8918 19.0101 16.8151 18.8207 16.5061L16.8387 13.2723C16.4918 12.7063 16.2608 12.3311 16.0653 12.0691C15.8689 11.8059 15.7822 11.7624 15.7662 11.7555C15.5964 11.682 15.4038 11.682 15.234 11.7555C15.218 11.7624 15.1313 11.8059 14.9348 12.0691C14.7393 12.3311 14.5084 12.7063 14.1615 13.2723L12.2074 16.4605L13.8681 19.1699ZM11.234 14.8721L12.7462 12.4048L12.7667 12.3714C13.0876 11.8477 13.358 11.4065 13.6045 11.0762C13.8553 10.7402 14.1555 10.4134 14.5748 10.232C15.1652 9.97653 15.835 9.97653 16.4254 10.232C16.8447 10.4134 17.1448 10.7402 17.3957 11.0762C17.6422 11.4065 17.9126 11.8477 18.2335 12.3714L18.2335 12.3714L18.254 12.4048L19.17 13.8994V7.19992C19.17 6.62617 19.1694 6.24578 19.1456 5.95392C19.1225 5.67174 19.082 5.54616 19.0425 5.46875C18.9304 5.2486 18.7514 5.06962 18.5312 4.95745C18.4538 4.91801 18.3282 4.87747 18.0461 4.85442C17.7542 4.83057 17.3738 4.82992 16.8 4.82992H7.20005C6.6263 4.82992 6.2459 4.83057 5.95404 4.85442C5.67186 4.87747 5.54628 4.91801 5.46888 4.95745C5.24873 5.06962 5.06974 5.2486 4.95757 5.46875C4.91813 5.54616 4.87759 5.67174 4.85454 5.95392C4.83069 6.24578 4.83005 6.62617 4.83005 7.19992V16.3996L5.74618 14.9048L5.76666 14.8714C6.08759 14.3477 6.358 13.9065 6.60451 13.5762C6.85532 13.2402 7.15547 12.9134 7.57479 12.732C8.1652 12.4765 8.83497 12.4765 9.42538 12.732C9.8447 12.9134 10.1448 13.2402 10.3957 13.5762C10.6422 13.9065 10.9126 14.3477 11.2335 14.8713L11.2335 14.8714L11.234 14.8721ZM5.24722 18.8956L7.1615 15.7723C7.50838 15.2063 7.73933 14.8311 7.93483 14.5691C8.13127 14.3059 8.218 14.2624 8.23401 14.2555C8.40379 14.182 8.59638 14.182 8.76616 14.2555C8.78217 14.2624 8.8689 14.3059 9.06534 14.5691C9.26084 14.8311 9.49179 15.2063 9.83867 15.7723L11.9211 19.1699H7.20005C6.6263 19.1699 6.2459 19.1693 5.95404 19.1454C5.67186 19.1224 5.54628 19.0818 5.46888 19.0424C5.38919 19.0018 5.3149 18.9524 5.24722 18.8956Z" fill="black"/>
</svg>
