<svg width="24" height="24" viewBox="0 0 24 24" fill="none" xmlns="http://www.w3.org/2000/svg">
<path fill-rule="evenodd" clip-rule="evenodd" d="M3 12C3 7.02944 7.02944 3 12 3C16.9706 3 21 7.02944 21 12C21 16.9706 16.9706 21 12 21C7.02944 21 3 16.9706 3 12ZM12 1C5.92487 1 1 5.92487 1 12C1 18.0751 5.92487 23 12 23C18.0751 23 23 18.0751 23 12C23 5.92487 18.0751 1 12 1ZM13 6C13 5.44772 12.5523 5 12 5C11.4477 5 11 5.44772 11 6V11.5576C11 12.1211 11.2377 12.6585 11.6547 13.0375L15.7273 16.7399C16.136 17.1114 16.7684 17.0813 17.1399 16.6727C17.5114 16.264 17.4813 15.6316 17.0727 15.2601L13 11.5576V6Z" fill="black"/>
</svg>
