<svg width="24" height="24" viewBox="0 0 24 24" fill="none" xmlns="http://www.w3.org/2000/svg">
<path fill-rule="evenodd" clip-rule="evenodd" d="M3.83004 11.9999C3.83004 7.48776 7.48788 3.82992 12 3.82992C12.6228 3.82992 13.2293 3.8996 13.8122 4.03159C10.9509 5.53849 9.00004 8.54139 9.00004 11.9999C9.00004 15.4585 10.9509 18.4613 13.8122 19.9683C13.2293 20.1002 12.6228 20.1699 12 20.1699C7.48788 20.1699 3.83004 16.5121 3.83004 11.9999ZM12 2.16992C6.57108 2.16992 2.17004 6.57096 2.17004 11.9999C2.17004 17.4289 6.57108 21.8299 12 21.8299C17.429 21.8299 21.83 17.4289 21.83 11.9999C21.83 6.57096 17.429 2.16992 12 2.16992Z" fill="black"/>
</svg>
