<svg width="24" height="24" viewBox="0 0 24 24" fill="none" xmlns="http://www.w3.org/2000/svg">
<path fill-rule="evenodd" clip-rule="evenodd" d="M12.5817 2.40781C12.2588 2.09063 11.7413 2.09063 11.4184 2.40781L6.47466 7.26406L6.47464 7.26403L6.4694 7.26927C5.7571 7.98157 5.19555 8.79468 4.78901 9.70532C4.37336 10.6364 4.17004 11.6423 4.17004 12.7124C4.17004 14.8455 4.9412 16.6874 6.46162 18.1915C7.9825 19.6961 9.84463 20.4549 12 20.4549C14.1555 20.4549 16.0176 19.6961 17.5385 18.1915C19.0589 16.6874 19.83 14.8455 19.83 12.7124C19.83 11.6423 19.6267 10.6364 19.2111 9.70532C18.8045 8.79468 18.243 7.98157 17.5307 7.26927L17.5307 7.26925L17.5254 7.26406L12.5817 2.40781ZM6.30482 10.382C6.62698 9.6604 7.07085 9.01601 7.64067 8.44559L12 4.16338V18.7949C10.2763 18.7949 8.8353 18.2047 7.62909 17.0114C6.42243 15.8177 5.83004 14.4002 5.83004 12.7124C5.83004 11.8575 5.99131 11.0843 6.30482 10.382Z" fill="black"/>
</svg>
